<?xml version="1.0" encoding="UTF-8" standalone="no"?>
<svg
   version="1.1"
   preserveAspectRatio="none"
   x="0px"
   y="0px"
   width="72px"
   height="72px"
   viewBox="0 0 72 72"
   id="svg293"
   sodipodi:docname="cookienomblob.svg"
   inkscape:version="1.1.2 (0a00cf5339, 2022-02-04)"
   inkscape:export-filename="/home/ckie/Downloads/cookienomblob.png"
   inkscape:export-xdpi="532.4342"
   inkscape:export-ydpi="532.4342"
   xmlns:inkscape="http://www.inkscape.org/namespaces/inkscape"
   xmlns:sodipodi="http://sodipodi.sourceforge.net/DTD/sodipodi-0.dtd"
   xmlns:xlink="http://www.w3.org/1999/xlink"
   xmlns="http://www.w3.org/2000/svg"
   xmlns:svg="http://www.w3.org/2000/svg">
  <sodipodi:namedview
     id="namedview295"
     pagecolor="#ffffff"
     bordercolor="#666666"
     borderopacity="1.0"
     inkscape:pageshadow="2"
     inkscape:pageopacity="0.0"
     inkscape:pagecheckerboard="0"
     showgrid="false"
     inkscape:zoom="10.442389"
     inkscape:cx="24.228173"
     inkscape:cy="32.511718"
     inkscape:window-width="1920"
     inkscape:window-height="1060"
     inkscape:window-x="0"
     inkscape:window-y="0"
     inkscape:window-maximized="1"
     inkscape:current-layer="g229" />
  <defs
     id="defs221">
    <g
       id="Layer0_0_MEMBER_0_MEMBER_0_MEMBER_0_MEMBER_0_FILL">
      <path
         fill="#FFC300"
         stroke="none"
         d=" M 36 5.6 Q 13.8 5.6 5.05 26.1 0.25 37.35 0.25 52.45 0.25 58.25 10.7 62.35 21.2 66.45 36 66.45 50.8 66.45 61.25 62.35 71.7 58.25 71.7 52.45 71.7 37.35 66.9 26.1 58.2 5.6 36 5.6 Z"
         id="path169" />
    </g>
    <g
       id="Layer0_1_MEMBER_0_FILL">
      <path
         fill="#B99379"
         stroke="none"
         d=" M 50.3 48.9 Q 50.3 39.65 43.75 33.1 37.2 26.55 27.95 26.55 18.7 26.55 12.15 33.1 5.6 39.65 5.6 48.9 5.6 58.15 12.15 64.7 18.7 71.25 27.95 71.25 37.2 71.25 43.75 64.7 50.3 58.15 50.3 48.9 Z"
         id="path172" />
    </g>
    <g
       id="Layer0_1_MEMBER_1_FILL">
      <path
         fill="#865C51"
         stroke="none"
         d=" M 101.3 87.15 Q 105.55 82.9 105.55 76.9 105.55 70.85 101.3 66.6 97 62.35 91 62.35 84.95 62.35 80.7 66.6 76.45 70.85 76.45 76.9 76.45 82.9 80.7 87.15 84.95 91.45 91 91.45 97 91.45 101.3 87.15 Z"
         id="path175" />
    </g>
    <g
       id="Layer0_1_MEMBER_2_FILL">
      <path
         fill="#865C51"
         stroke="none"
         d=" M 101.3 87.15 Q 105.55 82.9 105.55 76.9 105.55 70.85 101.3 66.6 97 62.35 91 62.35 84.95 62.35 80.7 66.6 76.45 70.85 76.45 76.9 76.45 82.9 80.7 87.15 84.95 91.45 91 91.45 97 91.45 101.3 87.15 Z"
         id="path178" />
    </g>
    <g
       id="Layer0_1_MEMBER_3_FILL">
      <path
         fill="#865C51"
         stroke="none"
         d=" M 101.3 87.15 Q 105.55 82.9 105.55 76.9 105.55 70.85 101.3 66.6 97 62.35 91 62.35 84.95 62.35 80.7 66.6 76.45 70.85 76.45 76.9 76.45 82.9 80.7 87.15 84.95 91.45 91 91.45 97 91.45 101.3 87.15 Z"
         id="path181" />
    </g>
    <g
       id="Layer0_1_MEMBER_4_FILL">
      <path
         fill="#865C51"
         stroke="none"
         d=" M 101.3 87.15 Q 105.55 82.9 105.55 76.9 105.55 70.85 101.3 66.6 97 62.35 91 62.35 84.95 62.35 80.7 66.6 76.45 70.85 76.45 76.9 76.45 82.9 80.7 87.15 84.95 91.45 91 91.45 97 91.45 101.3 87.15 Z"
         id="path184" />
    </g>
    <g
       id="Layer0_1_MEMBER_5_FILL">
      <path
         fill="#865C51"
         stroke="none"
         d=" M 101.3 87.15 Q 105.55 82.9 105.55 76.9 105.55 70.85 101.3 66.6 97 62.35 91 62.35 84.95 62.35 80.7 66.6 76.45 70.85 76.45 76.9 76.45 82.9 80.7 87.15 84.95 91.45 91 91.45 97 91.45 101.3 87.15 Z"
         id="path187" />
    </g>
    <g
       id="Layer0_1_MEMBER_6_FILL">
      <path
         fill="#865C51"
         stroke="none"
         d=" M 101.3 87.15 Q 105.55 82.9 105.55 76.9 105.55 70.85 101.3 66.6 97 62.35 91 62.35 84.95 62.35 80.7 66.6 76.45 70.85 76.45 76.9 76.45 82.9 80.7 87.15 84.95 91.45 91 91.45 97 91.45 101.3 87.15 Z"
         id="path190" />
    </g>
    <g
       id="Layer0_1_MEMBER_7_FILL">
      <path
         fill="#865C51"
         stroke="none"
         d=" M 101.3 87.15 Q 105.55 82.9 105.55 76.9 105.55 70.85 101.3 66.6 97 62.35 91 62.35 84.95 62.35 80.7 66.6 76.45 70.85 76.45 76.9 76.45 82.9 80.7 87.15 84.95 91.45 91 91.45 97 91.45 101.3 87.15 Z"
         id="path193" />
    </g>
    <g
       id="Layer0_1_MEMBER_8_FILL">
      <path
         fill="#865C51"
         stroke="none"
         d=" M 101.3 87.15 Q 105.55 82.9 105.55 76.9 105.55 70.85 101.3 66.6 97 62.35 91 62.35 84.95 62.35 80.7 66.6 76.45 70.85 76.45 76.9 76.45 82.9 80.7 87.15 84.95 91.45 91 91.45 97 91.45 101.3 87.15 Z"
         id="path196" />
    </g>
    <g
       id="Layer0_2_FILL">
      <path
         fill="#FCC21B"
         stroke="none"
         d=" M 30.55 27.2 Q 32.3 31.2 35.2 34.5 38.35 32.6 41.7 28.85 L 31.05 24.2 21.8 25.6 Q 22.4 29.25 24.7 33 28.2 30.6 30.55 27.2 Z"
         id="path199" />
    </g>
    <g
       id="Layer0_3_MEMBER_0_FILL">
      <path
         fill="#2F2F2F"
         stroke="none"
         d=" M 19.05 19.4 Q 20.8 21.15 23.3 21.15 25.8 21.15 27.55 19.4 29.3 17.65 29.3 15.15 29.3 12.65 27.55 10.9 25.8 9.15 23.3 9.15 20.8 9.15 19.05 10.9 17.3 12.65 17.3 15.15 17.3 17.65 19.05 19.4 Z"
         id="path202" />
    </g>
    <g
       id="Layer0_3_MEMBER_1_FILL">
      <path
         fill="#FFFFFF"
         stroke="none"
         d=" M 22.15 14.55 Q 22.6 14.1 22.6 13.5 22.6 12.85 22.15 12.45 21.7 12 21.1 12 20.45 12 20.05 12.45 19.6 12.85 19.6 13.5 19.6 14.1 20.05 14.55 20.45 15 21.1 15 21.7 15 22.15 14.55 Z"
         id="path205" />
    </g>
    <g
       id="Layer0_3_MEMBER_2_FILL">
      <path
         fill="#FFFFFF"
         stroke="none"
         d=" M 26.75 17.8 Q 27 17.55 27 17.2 27 16.8 26.75 16.55 26.5 16.3 26.1 16.3 25.75 16.3 25.45 16.55 25.2 16.8 25.2 17.2 25.2 17.55 25.45 17.8 25.75 18.1 26.1 18.1 26.5 18.1 26.75 17.8 Z"
         id="path208" />
    </g>
    <g
       id="Layer0_4_MEMBER_0_FILL">
      <path
         fill="#2F2F2F"
         stroke="none"
         d=" M 19.05 19.4 Q 20.8 21.15 23.3 21.15 25.8 21.15 27.55 19.4 29.3 17.65 29.3 15.15 29.3 12.65 27.55 10.9 25.8 9.15 23.3 9.15 20.8 9.15 19.05 10.9 17.3 12.65 17.3 15.15 17.3 17.65 19.05 19.4 Z"
         id="path211" />
    </g>
    <g
       id="Layer0_4_MEMBER_1_FILL">
      <path
         fill="#FFFFFF"
         stroke="none"
         d=" M 22.15 14.55 Q 22.6 14.1 22.6 13.5 22.6 12.85 22.15 12.45 21.7 12 21.1 12 20.45 12 20.05 12.45 19.6 12.85 19.6 13.5 19.6 14.1 20.05 14.55 20.45 15 21.1 15 21.7 15 22.15 14.55 Z"
         id="path214" />
    </g>
    <g
       id="Layer0_4_MEMBER_2_FILL">
      <path
         fill="#FFFFFF"
         stroke="none"
         d=" M 26.75 17.8 Q 27 17.55 27 17.2 27 16.8 26.75 16.55 26.5 16.3 26.1 16.3 25.75 16.3 25.45 16.55 25.2 16.8 25.2 17.2 25.2 17.55 25.45 17.8 25.75 18.1 26.1 18.1 26.5 18.1 26.75 17.8 Z"
         id="path217" />
    </g>
    <path
       id="Layer0_2_1_STROKES"
       stroke="#2F2F2F"
       stroke-width="2.5"
       stroke-linejoin="round"
       stroke-linecap="round"
       fill="none"
       d=" M 21.8 25.6 Q 22.4 29.25 24.7 33 28.2 30.6 30.55 27.2 32.3 31.2 35.2 34.5 38.35 32.6 41.7 28.85" />
    <g
       id="Layer3_0_FILL">
      <path
         fill="#FCC21B"
         stroke="none"
         d=" M 70.35 44.8 Q 73.1 31.35 69.7 20.35 66.15 8.65 56.9 4.05 43.5 -2.65 29.95 1.4 16.2 5.5 8.7 18.7 -1 33.2 0.55 57.5 0.95 63.35 11.15 67.45 21.5 71.6 36.1 71.6 50.65 71.6 60.9 67.45 71.05 63.35 71.6 57.5 71.7 56.4 70.25 52.45 69 49.1 70.35 44.8 Z"
         id="path1540" />
    </g>
    <g
       id="Layer1_0_FILL">
      <path
         fill="#2F2F2F"
         stroke="none"
         d=" M 15.35 22.65 Q 14.2 24.85 14.8 26.95 15.3 29.05 17.05 30 18.9 30.9 20.9 30 22.95 29.05 24.1 26.95 25.15 24.85 24.65 22.6 24.1 20.45 22.25 19.6 20.45 18.7 18.4 19.6 16.4 20.5 15.35 22.65 M 48.1 22.5 Q 46.95 22.75 45.9 23.6 44.05 25.05 43.45 27.5 43 30.05 44.05 32.05 45.15 34.15 47.3 34.5 47.75 34.6 48.1 34.65 49.7 34.65 51.2 33.45 53 32.05 53.55 29.55 54.05 27.15 52.95 25.05 51.85 23 49.8 22.5 49 22.45 48.1 22.5 Z"
         id="path1543" />
    </g>
    <path
       id="Layer2_0_1_STROKES"
       stroke="#2F2F2F"
       stroke-width="2.5"
       stroke-linejoin="round"
       stroke-linecap="round"
       fill="none"
       d=" M 22.5 35.65 Q 23.1 39.3 25.4 43.05 28.9 40.65 31.25 37.25 33 41.25 35.9 44.55 39.05 42.65 42.4 38.9" />
    <path
       id="SVGID_1_"
       d="M125.83,75.35c7.81-30.05-8.92-59.14-38.28-65.49C24.23-3.83-3.89,53.75,0.75,95.17         c0,13.81,28.22,25.02,63.02,25.02c32.63,0,59.45-9.86,62.69-22.47c0.21-0.84,0.32-1.7,0.32-2.56         C126.78,88.6,122.65,87.61,125.83,75.35z" />
  </defs>
  <g
     transform="matrix(0.28007507,0.04948425,-0.04936218,0.28065491,5.65,22.3)"
     id="g233"
     style="display:none" />
  <g
     inkscape:groupmode="layer"
     id="layer1"
     inkscape:label="cookie"
     style="display:inline">
    <g
       transform="matrix(1.5817119,0.27954753,-0.27873696,1.584905,5.3708544,-49.292142)"
       id="g229">
      <use
         xlink:href="#Layer0_1_MEMBER_0_FILL"
         id="use227"
         x="0"
         y="0"
         width="100%"
         height="100%"
         style="display:none"
         inkscape:label="use227" />
      <rect
         style="display:inline;fill:#b99379;fill-opacity:1;fill-rule:evenodd;stroke-width:0.621996"
         id="rect139"
         width="44.905231"
         height="44.813564"
         x="-3.4471152"
         y="30.716282"
         transform="matrix(0.98479861,-0.17370001,0.17355064,0.98482495,0,0)" />
    </g>
    <use
       xlink:href="#Layer0_1_MEMBER_1_FILL"
       id="use231"
       transform="matrix(0.45084744,0.07965667,-0.07946017,0.45178083,-0.18274125,-7.1974957)"
       x="0"
       y="0"
       width="100%"
       height="100%"
       style="display:none" />
    <g
       transform="matrix(0.49437247,0.08736934,-0.08712371,0.49535497,-14.670382,7.8535533)"
       id="g237"
       style="display:inline">
      <use
         xlink:href="#Layer0_1_MEMBER_2_FILL"
         id="use235"
         x="0"
         y="0"
         width="100%"
         height="100%" />
    </g>
    <g
       transform="matrix(0.42373028,0.07486696,-0.07467046,0.42451628,22.916997,-3.8975331)"
       id="g241">
      <use
         xlink:href="#Layer0_1_MEMBER_3_FILL"
         id="use239"
         x="0"
         y="0"
         width="100%"
         height="100%" />
    </g>
    <g
       transform="matrix(0.2823231,0.04986218,-0.04973937,0.28283892,-8.0704566,11.877898)"
       id="g245">
      <use
         xlink:href="#Layer0_1_MEMBER_4_FILL"
         id="use243"
         x="0"
         y="0"
         width="100%"
         height="100%" />
    </g>
    <g
       transform="matrix(0.41282447,0.07295107,-0.07275457,0.41361047,-5.8973105,-24.904612)"
       id="g253">
      <use
         xlink:href="#Layer0_1_MEMBER_6_FILL"
         id="use251"
         x="0"
         y="0"
         width="100%"
         height="100%" />
    </g>
    <g
       transform="matrix(0.28045634,0.04954287,-0.04939548,0.28092303,27.50475,-7.1974957)"
       id="g257">
      <use
         xlink:href="#Layer0_1_MEMBER_7_FILL"
         id="use255"
         x="0"
         y="0"
         width="100%"
         height="100%" />
    </g>
    <g
       transform="matrix(0.42373028,0.07486696,-0.07467046,0.42451628,16.478046,17.431494)"
       id="g261">
      <use
         xlink:href="#Layer0_1_MEMBER_8_FILL"
         id="use259"
         x="0"
         y="0"
         width="100%"
         height="100%" />
    </g>
    <g
       transform="matrix(0.17422485,0.03077698,-0.03068542,0.17451477,22.75,22.15)"
       id="g249"
       style="display:none">
      <use
         xlink:href="#Layer0_1_MEMBER_5_FILL"
         id="use247"
         x="0"
         y="0"
         width="100%"
         height="100%" />
    </g>
    <g
       id="g1453"
       transform="matrix(0.75,0,0,0.75,-54.264164,-40.192545)"
       style="display:none">
      <g
         id="g1447">
        <path
           fill="#fcc21b"
           d="M 37.19,12.93 C 7.96,18.32 -7.12,44.37 3.47,72.89 7.78,84.51 2.53,85.86 2.53,92.26 c 0,13.53 27.93,24.49 62.38,24.49 34.45,0 62.38,-10.96 62.38,-24.49 4.57,-40.51 -27.22,-90.88 -90.1,-79.33 z"
           id="path1443" />
        <path
           fill="#ed6c30"
           d="m 82.12,89.01 c -0.73,7.74 -5.22,13.2 -15.16,13.26 -9.33,0.11 -12.26,-6.57 -19.98,-6.52 -8.21,0.02 -8.12,2.33 -14.57,3.22 -5.03,0.55 -9.96,-5.57 -10.83,-8.4 -1.59,-5.45 -2.74,-10.59 4.05,-14.4 6.46,-3.91 15.54,3.86 19.43,3.76 7.4,-0.03 12.31,-10.72 22.44,-9.36 9.48,1.27 14.85,11.22 14.62,18.44 z"
           id="path1445" />
      </g>
      <path
         fill="#2f2f2f"
         d="m 75.67,63.66 c 1.68,-0.44 2.67,-2.14 2.24,-3.82 -0.44,-1.66 -2.13,-2.66 -3.8,-2.24 -0.52,0.14 -12.74,3.07 -20.89,-6.63 -1.11,-1.32 -3.08,-1.49 -4.41,-0.39 -1.31,1.11 -1.49,3.08 -0.37,4.41 5.55,6.6 12.44,8.73 17.92,9.24 5.13,0.46 8.99,-0.5 9.31,-0.57 z"
         id="path1449" />
      <path
         fill="#2f2f2f"
         d="m 16.38,70.27 c 0.4,1.21 1.53,1.99 2.75,1.99 0.29,0 0.61,-0.05 0.91,-0.16 C 33.93,67.51 33.8,56.45 33.78,55.98 33.75,54.38 32.5,53 30.83,53.17 c -1.59,0.05 -2.84,1.36 -2.81,2.93 0,0.36 -0.14,7.34 -9.8,10.52 -1.51,0.51 -2.34,2.14 -1.84,3.65 z"
         id="path1451" />
    </g>
  </g>
  <g
     inkscape:groupmode="layer"
     id="layer5"
     inkscape:label="blobhappy"
     style="display:none">
    <g
       id="g1718"
       transform="matrix(0.36607635,0,0,0.36607635,-4.3305629,24.830477)"
       style="display:inline">
      <g
         id="g1710">
        <path
           fill="#fcc21b"
           d="M 111.79,92.66 C 119.08,68.84 113.25,48.58 96.48,40.05 71.41,27.3 47.76,36.97 33.6,58.18 c -1.2,1.81 -2.26,3.72 -3.25,5.67 l -0.08,-0.06 c -0.52,0.97 -0.87,1.04 -1.1,0.83 -0.11,-2.82 -0.19,-5.64 -0.16,-8.46 0.05,-5.03 0.31,-10.04 0.75,-15.06 0.34,-3.82 0.35,-5.91 3.77,-8.06 1.91,-1.19 3.84,-2.37 5.75,-3.58 2.04,-1.3 5.63,-2.93 6.36,-5.48 0.63,-2.25 -1.11,-4.26 -3.29,-4.59 -1.3,-0.19 -2.31,1 -3.63,0.72 -2.7,-0.57 -2.15,-3.14 -1.06,-4.92 C 40.5,10.54 41.96,6.89 36.83,3.08 35.7,2.25 34.59,1.45 33.3,0.94 30.93,-0.01 28.39,-0.12 26,0.41 c -3.79,0.85 -7.25,3.28 -9.13,6.62 -1.57,2.78 -2.62,5.69 -3.04,8.79 -0.54,3.93 0.46,7.81 0.88,11.68 0.47,4.15 -0.52,7.34 -1.1,11.36 -0.83,5.79 -1.32,11.62 -1.42,17.47 -0.07,4.19 0.06,8.37 0.39,12.54 1.06,12.99 2.57,25.96 9.68,41.79 l 0.03,-0.09 c 1.59,9.67 21.82,17.34 46.59,17.34 0.03,0 0.06,0 0.1,0 0.04,0 0.06,0 0.1,0 6.98,0 13.51,-0.63 19.38,-1.72 14.27,-2.62 24.62,-8 26.72,-14.42 0.32,-0.79 0.55,-1.59 0.63,-2.41 0.5,-5.22 -7.03,-6.89 -4.02,-16.7 z"
           id="path1708" />
      </g>
      <path
         fill="#2f2f2f"
         d="m 51.29,50.32 c 2.11,-3.58 6.22,-5.06 9.16,-3.31 2.96,1.75 3.65,6.05 1.54,9.62 -2.1,3.57 -6.2,5.04 -9.16,3.3 -2.95,-1.73 -3.65,-6.05 -1.54,-9.61 z"
         id="path1712" />
      <path
         fill="#ed6c30"
         d="m 72.22,93.29 c -2.44,0.31 -4.9,0.27 -7.34,0.01 -5.63,-0.62 -11.53,-3.08 -15.16,-7.89 -3.67,-4.89 -4.06,-14.76 1.84,-17.91 1.73,-0.93 5.18,-1.44 7.06,-0.77 2.74,0.98 4.4,3.95 7.27,4.74 3.81,1.04 7.67,-0.37 11.52,-0.09 3.2,0.22 7.3,2.47 8.44,5.78 3.14,9.09 -6.47,15.19 -13.63,16.13 z"
         id="path1714" />
      <path
         fill="#2f2f2f"
         d="m 90,63.14 c -2.1,3.56 -6.2,5.04 -9.15,3.3 -2.97,-1.72 -3.65,-6.04 -1.54,-9.6 2.1,-3.59 6.21,-5.06 9.16,-3.32 2.95,1.75 3.64,6.05 1.53,9.62 z"
         id="path1716" />
    </g>
  </g>
  <g
     inkscape:groupmode="layer"
     id="layer6"
     inkscape:label="disappointed but relieved">
    <g
       id="g1980"
       transform="matrix(0.31787618,0,0,0.31787618,-0.19177311,34.071535)">
      <g
         id="g1976">
        <g
           id="g1964">
          <g
             id="g1962">
            <g
               id="g1960">
              <g
                 id="g1958">
                <defs
                   id="defs1946">
                  <path
                     id="path1988"
                     d="M 125.83,75.35 C 133.64,45.3 116.91,16.21 87.55,9.86 24.23,-3.83 -3.89,53.75 0.75,95.17 c 0,13.81 28.22,25.02 63.02,25.02 32.63,0 59.45,-9.86 62.69,-22.47 0.21,-0.84 0.32,-1.7 0.32,-2.56 0,-6.56 -4.13,-7.55 -0.95,-19.81 z" />
                </defs>
                <linearGradient
                   id="SVGID_2_"
                   gradientUnits="userSpaceOnUse"
                   x1="68.605499"
                   y1="65.350601"
                   x2="82.306503"
                   y2="10.2418">
                  <stop
                     offset="0"
                     style="stop-color:#FCC21B"
                     id="stop1948" />
                  <stop
                     offset="1"
                     style="stop-color:#42ADE7"
                     id="stop1950" />
                </linearGradient>
                <use
                   xlink:href="#SVGID_1_"
                   overflow="visible"
                   fill="url(#SVGID_2_)"
                   id="use1953"
                   x="0"
                   y="0"
                   width="100%"
                   height="100%"
                   style="fill:url(#SVGID_2_)" />
                <clipPath
                   id="SVGID_3_">
                  <use
                     xlink:href="#SVGID_1_"
                     overflow="visible"
                     id="use1955"
                     x="0"
                     y="0"
                     width="100%"
                     height="100%" />
                </clipPath>
              </g>
            </g>
          </g>
        </g>
        <path
           fill="#ed6c30"
           d="m 45.92,102.89 c 3.51,1.14 6.45,3.6 9.29,5.92 3.33,2.85 7.11,4.29 11.54,3.88 3.77,-0.35 7.42,-2.04 9.8,-5.17 6.58,-8.68 1.86,-20.47 0.03,-23.73 C 72.6,77.15 66.56,72.15 59.72,69.35 56.07,67.82 51.57,66.68 47.33,66.49 37.21,65.91 25.43,69.56 18.27,79.97 c -5.42,7.64 -6.66,20.2 2.64,24.37 3.04,1.36 6.48,1.78 9.63,0.54 4.1,-1.63 8.68,-3.12 13.16,-2.49 0.76,0.09 1.5,0.27 2.22,0.5 z"
           id="path1966" />
        <path
           fill="#ffffff"
           d="M 90.24,51.34 C 88.62,60.25 80.63,66.26 72.41,64.76 64.17,63.26 58.82,54.82 60.46,45.91 62.08,37 70.06,31 78.29,32.5 86.52,34 91.87,42.43 90.24,51.34 Z"
           id="path1968" />
        <path
           fill="#ffffff"
           d="M 47.9,47.75 C 44.63,55.91 36.47,60.32 29.69,57.6 22.88,54.88 20.03,46.06 23.31,37.9 c 3.27,-8.16 11.41,-12.57 18.21,-9.85 6.79,2.72 9.64,11.55 6.38,19.7 z"
           id="path1970" />
        <path
           fill="#2f2f2f"
           d="m 39.76,44.65 c -0.96,2.92 -3.75,4.68 -6.24,3.94 -2.49,-0.74 -3.72,-3.71 -2.76,-6.63 0.95,-2.92 3.74,-4.69 6.23,-3.94 2.48,0.74 3.72,3.71 2.77,6.63"
           id="path1972" />
        <path
           fill="#2f2f2f"
           d="m 78.75,49.62 c -0.39,3.32 -2.97,5.79 -5.78,5.54 -2.8,-0.25 -4.76,-3.15 -4.38,-6.45 0.38,-3.31 2.98,-5.8 5.78,-5.55 2.8,0.26 4.76,3.15 4.38,6.46"
           id="path1974" />
      </g>
      <path
         fill="#ffffff"
         d="m 109.26,85.9 c -0.16,-5.26 -5.42,-13.74 -6.4,-13.85 -1.02,-0.06 -5.29,6.54 -5.88,13.27 -0.55,4.83 2.18,8.27 6.02,8.23 4.23,-0.04 6.33,-2.93 6.26,-7.65 z"
         id="path1978" />
    </g>
  </g>
  <g
     inkscape:groupmode="layer"
     id="layer2"
     inkscape:label="nom"
     style="display:inline">
    <g
       transform="translate(0.24713534,9.9557212)"
       id="g267">
      <use
         xlink:href="#Layer0_2_1_STROKES"
         id="use265"
         x="0"
         y="0"
         width="100%"
         height="100%"
         style="display:inline" />
    </g>
    <g
       transform="matrix(0.9833374,0,0,0.9833374,0.24713534,10.605721)"
       id="g271">
      <use
         xlink:href="#Layer0_3_MEMBER_0_FILL"
         id="use269"
         x="0"
         y="0"
         width="100%"
         height="100%" />
    </g>
    <g
       transform="translate(-0.15286466,10.555721)"
       id="g275">
      <use
         xlink:href="#Layer0_3_MEMBER_1_FILL"
         id="use273"
         x="0"
         y="0"
         width="100%"
         height="100%" />
    </g>
    <g
       transform="matrix(0.9833374,0,0,0.9833374,21.347135,14.055721)"
       id="g283">
      <use
         xlink:href="#Layer0_4_MEMBER_0_FILL"
         id="use281"
         x="0"
         y="0"
         width="100%"
         height="100%" />
    </g>
    <g
       transform="translate(-0.15286466,10.555721)"
       id="g279">
      <use
         xlink:href="#Layer0_3_MEMBER_2_FILL"
         id="use277"
         x="0"
         y="0"
         width="100%"
         height="100%" />
    </g>
    <g
       transform="translate(20.947135,14.005721)"
       id="g287"
       style="display:inline">
      <use
         xlink:href="#Layer0_4_MEMBER_1_FILL"
         id="use285"
         x="0"
         y="0"
         width="100%"
         height="100%" />
    </g>
    <g
       transform="translate(20.947135,14.005721)"
       id="g291"
       style="display:inline">
      <use
         xlink:href="#Layer0_4_MEMBER_2_FILL"
         id="use289"
         x="0"
         y="0"
         width="100%"
         height="100%" />
    </g>
  </g>
  <g
     inkscape:groupmode="layer"
     id="layer3"
     inkscape:label="blob"
     style="display:none">
    <g
       transform="translate(0.05,-4.9)"
       id="g225"
       style="display:inline">
      <use
         xlink:href="#Layer0_0_MEMBER_0_MEMBER_0_MEMBER_0_MEMBER_0_FILL"
         id="use223"
         x="0"
         y="0"
         width="100%"
         height="100%" />
    </g>
  </g>
</svg>
